# xmcd
#
# Track frame offsets: 
#        150
#        21015
#        34620
#        51909
#        64556
#        83052
#        97964
#        117815
#        137460
#        158146
#        174897
#        196908
#
# Disc length: 2936 seconds
#
# Revision: 0
# Processed by: cddbd v1.5.2PL0 Copyright (c) Steve Scherf et al.
# Submitted via: ExactAudioCopy v0.95b4
#
DISCID=870b760c
DTITLE=Forrest McDonald - Forrest On Fire
DYEAR=1997
DGENRE=Blues
TTITLE0=If You Don't Really Love Me
TTITLE1=123 Rock
TTITLE2=Police Woman
TTITLE3=Hook Line and Sinker
TTITLE4=In America
TTITLE5=I'm Not The Waiting Kind
TTITLE6=Queen of Sherba
TTITLE7=That's How I Want Our Love
TTITLE8=I Need You
TTITLE9=Hard To Lose
TTITLE10=Take Me To The Country
TTITLE11=Rollin Down The River
EXTD=
EXTT0=
EXTT1=
EXTT2=
EXTT3=
EXTT4=
EXTT5=
EXTT6=
EXTT7=
EXTT8=
EXTT9=
EXTT10=
EXTT11=
PLAYORDER=
